# xmcd CD database file
#
# Track frame offsets:
#	150
#	15238
#	29695
#	44507
#	59653
#	74956
#	86449
#	101918
#	116255
#	129366
#	142810
#	157227
#	170630
#	185268
#	200686
#	213613
#	229452
#	243116
#	256700
#	268604
#
# Disc length: 3725 seconds
#
# Revision: 0
# Processed by: cddbd v1.5.2PL0 Copyright (c) Steve Scherf et al.
# Submitted via: CDex 1.70beta2
#
DISCID=2a0e8b14
DTITLE=Various Artist - Classic Blues [CD1]
DYEAR=2019
DGENRE=Blues
TTITLE0=Crazy Blues - Mamie Smith
TTITLE1=See See Rider - Ma Rainey
TTITLE2=Trouble In Mind - Bertha 'Chippie' Hill
TTITLE3=Dark Was The Night (Cold Was The Ground) - Blind Willie Johnson
TTITLE4=Frankie - Mississippi John Hurt
TTITLE5=Statesboro Blues - Blind Willie McTell
TTITLE6=Bull Doze Blues - Henry Thomas
TTITLE7=When The Levee Breaks - Kansas Joe And Memphis Minnie
TTITLE8=That's No Way To Get Along - Robert Wilkins
TTITLE9=Nobody Knows You When You're Down And Out - Bessie Smith
TTITLE10=A Spoonful Blues - Charley Patton
TTITLE11=Stack O'Lee Blues - Mississippi John Hurt 
TTITLE12=Honky Tonk Train Blues - Meade Lux Lewis
TTITLE13=Got The Blues For Murder Only - Lonnie Johnson
TTITLE14=I'm So Glad - Skip James
TTITLE15=Gimme A Pigfoot (And A Bottle Of Beer) - Bessie Smith
TTITLE16=Sweet Home Chicago - Robert Johnson
TTITLE17=Good Morning, School Girl - John Lee 'Sonny Boy' Williamson
TTITLE18=Hellhound On My Trail - Robert Johnson
TTITLE19=GetYour Yas Yas Out - Blind Boy Fuller
EXTD=YEAR: 2019
EXTT0=
EXTT1=
EXTT2=
EXTT3=
EXTT4=
EXTT5=
EXTT6=
EXTT7=
EXTT8=
EXTT9=
EXTT10=
EXTT11=
EXTT12=
EXTT13=
EXTT14=
EXTT15=
EXTT16=
EXTT17=
EXTT18=
EXTT19=
PLAYORDER=
